<svg xmlns="http://www.w3.org/2000/svg" viewBox="0 0 44 44"><path d="M43.951 21C43.44 9.652 34.349.562 23 .051V0h-2v.051C9.651.562.56 9.652.049 21H0v2h.049C.56 34.348 9.651 43.438 21 43.949V44h2v-.051C34.349 43.438 43.44 34.348 43.951 23H44v-2h-.049zM18.593 2.312C15.635 4.185 13.141 6.868 11.315 10H6.023a19.973 19.973 0 0 1 12.57-7.688zM4.719 12h5.554c-1.304 2.801-2.1 5.87-2.239 9H2.045a19.857 19.857 0 0 1 2.674-9zM2.045 23h5.988c.14 3.13.936 6.199 2.239 9H4.719a19.857 19.857 0 0 1-2.674-9zm3.978 11h5.291c1.826 3.132 4.32 5.815 7.278 7.688A19.973 19.973 0 0 1 6.023 34zM21 40.787C18.05 39.3 15.527 36.898 13.641 34H21v6.787zM21 32h-8.521c-1.418-2.769-2.29-5.862-2.444-9H21v9zm0-11H10.035c.154-3.138 1.026-6.231 2.444-9H21v9zm0-11h-7.359C15.527 7.102 18.05 4.7 21 3.213V10zm16.977 0h-5.27c-1.801-3.113-4.258-5.787-7.171-7.669A19.968 19.968 0 0 1 37.977 10zM23 3.157c2.963 1.497 5.493 3.92 7.383 6.843H23V3.157zM23 12h8.535c1.409 2.771 2.276 5.863 2.43 9H23v-9zm0 11h10.965c-.153 3.137-1.021 6.229-2.43 9H23v-9zm0 11h7.383c-1.89 2.923-4.42 5.346-7.383 6.843V34zm2.536 7.669c2.913-1.882 5.37-4.556 7.171-7.669h5.27a19.968 19.968 0 0 1-12.441 7.669zM39.283 32h-5.54c1.295-2.803 2.085-5.871 2.224-9h5.988a19.867 19.867 0 0 1-2.672 9zm-3.316-11c-.139-3.129-.929-6.197-2.224-9h5.54a19.867 19.867 0 0 1 2.672 9h-5.988z"/></svg>